<svg xmlns="http://www.w3.org/2000/svg" xmlns:xlink="http://www.w3.org/1999/xlink" width="500" zoomAndPan="magnify" viewBox="0 0 375 374.999991" height="500" preserveAspectRatio="xMidYMid meet" version="1.0"><defs><clipPath id="8283513e53"><path d="M 0 131 L 134 131 L 134 292.691406 L 0 292.691406 Z M 0 131 " clip-rule="nonzero"/></clipPath><clipPath id="6168b62e68"><path d="M 42 89 L 201 89 L 201 292.691406 L 42 292.691406 Z M 42 89 " clip-rule="nonzero"/></clipPath><clipPath id="82fca9e900"><path d="M 169 89 L 328 89 L 328 292.691406 L 169 292.691406 Z M 169 89 " clip-rule="nonzero"/></clipPath><clipPath id="025a6bd97e"><path d="M 288 207 L 372.75 207 L 372.75 292 L 288 292 Z M 288 207 " clip-rule="nonzero"/></clipPath></defs><g clip-path="url(#8283513e53)"><path fill="#f59e0b" d="M 24.296875 138.5 C 25.671875 137.703125 27.085938 136.976562 28.535156 136.320312 C 29.984375 135.660156 31.464844 135.078125 32.96875 134.5625 C 34.476562 134.050781 36.003906 133.617188 37.554688 133.253906 C 39.105469 132.890625 40.667969 132.605469 42.246094 132.398438 C 43.824219 132.191406 45.40625 132.058594 46.996094 132.007812 C 48.585938 131.957031 50.175781 131.980469 51.765625 132.085938 C 53.351562 132.1875 54.933594 132.371094 56.5 132.628906 C 58.070312 132.886719 59.625 133.222656 61.164062 133.636719 C 62.699219 134.046875 64.214844 134.535156 65.703125 135.09375 C 67.191406 135.652344 68.648438 136.285156 70.078125 136.988281 C 71.503906 137.695312 72.894531 138.464844 74.246094 139.304688 C 75.597656 140.148438 76.902344 141.050781 78.164062 142.019531 C 79.429688 142.988281 80.640625 144.019531 81.800781 145.105469 C 82.960938 146.195312 84.066406 147.335938 85.117188 148.53125 C 86.164062 149.730469 87.152344 150.972656 88.082031 152.269531 C 89.007812 153.5625 89.867188 154.898438 90.664062 156.277344 L 127.046875 219.351562 C 127.84375 220.726562 128.570312 222.140625 129.226562 223.589844 C 129.882812 225.039062 130.46875 226.515625 130.980469 228.023438 C 131.492188 229.53125 131.929688 231.058594 132.292969 232.609375 C 132.652344 234.160156 132.9375 235.722656 133.148438 237.300781 C 133.355469 238.878906 133.484375 240.460938 133.539062 242.050781 C 133.589844 243.640625 133.5625 245.230469 133.460938 246.820312 C 133.355469 248.40625 133.175781 249.988281 132.917969 251.558594 C 132.65625 253.125 132.320312 254.679688 131.910156 256.21875 C 131.5 257.753906 131.011719 259.269531 130.453125 260.757812 C 129.890625 262.246094 129.257812 263.703125 128.554688 265.132812 C 127.851562 266.558594 127.078125 267.949219 126.238281 269.300781 C 125.398438 270.652344 124.496094 271.957031 123.523438 273.222656 C 122.554688 274.484375 121.527344 275.695312 120.441406 276.855469 C 119.351562 278.019531 118.210938 279.121094 117.011719 280.171875 C 115.816406 281.222656 114.570312 282.207031 113.277344 283.136719 C 111.984375 284.0625 110.648438 284.921875 109.269531 285.71875 C 107.890625 286.515625 106.480469 287.242188 105.03125 287.898438 C 103.582031 288.554688 102.101562 289.140625 100.59375 289.652344 C 99.089844 290.164062 97.5625 290.601562 96.011719 290.964844 C 94.460938 291.324219 92.898438 291.609375 91.320312 291.816406 C 89.742188 292.027344 88.160156 292.15625 86.566406 292.210938 C 84.976562 292.261719 83.386719 292.234375 81.800781 292.132812 C 80.210938 292.027344 78.632812 291.847656 77.0625 291.585938 C 75.492188 291.328125 73.941406 290.992188 72.402344 290.582031 C 70.867188 290.167969 69.351562 289.683594 67.863281 289.125 C 66.375 288.5625 64.914062 287.929688 63.488281 287.226562 C 62.0625 286.523438 60.671875 285.75 59.320312 284.910156 C 57.96875 284.070312 56.660156 283.164062 55.398438 282.195312 C 54.136719 281.226562 52.925781 280.199219 51.765625 279.113281 C 50.601562 278.023438 49.496094 276.882812 48.449219 275.683594 C 47.398438 274.488281 46.410156 273.242188 45.484375 271.949219 C 44.558594 270.65625 43.699219 269.320312 42.902344 267.941406 L 6.519531 204.84375 C 5.722656 203.464844 4.996094 202.050781 4.339844 200.601562 C 3.679688 199.152344 3.097656 197.675781 2.582031 196.167969 C 2.070312 194.664062 1.636719 193.132812 1.273438 191.585938 C 0.910156 190.035156 0.625 188.472656 0.417969 186.894531 C 0.210938 185.316406 0.078125 183.730469 0.0273438 182.140625 C -0.0234375 180.550781 0 178.960938 0.105469 177.375 C 0.207031 175.785156 0.390625 174.207031 0.648438 172.636719 C 0.90625 171.066406 1.242188 169.511719 1.65625 167.976562 C 2.066406 166.4375 2.554688 164.925781 3.113281 163.4375 C 3.671875 161.945312 4.304688 160.488281 5.007812 159.0625 C 5.714844 157.632812 6.484375 156.246094 7.324219 154.894531 C 8.167969 153.542969 9.070312 152.234375 10.039062 150.972656 C 11.007812 149.710938 12.039062 148.5 13.125 147.335938 C 14.214844 146.175781 15.355469 145.070312 16.550781 144.023438 C 17.75 142.972656 18.992188 141.984375 20.289062 141.058594 C 21.582031 140.132812 22.917969 139.269531 24.296875 138.476562 Z M 24.296875 138.5 " fill-opacity="1" fill-rule="evenodd"/></g><g clip-path="url(#6168b62e68)"><path fill="#f59e0b" d="M 176.300781 95.691406 C 174.921875 94.894531 173.511719 94.167969 172.0625 93.511719 C 170.613281 92.851562 169.132812 92.269531 167.625 91.757812 C 166.121094 91.246094 164.59375 90.808594 163.042969 90.445312 C 161.492188 90.085938 159.929688 89.800781 158.351562 89.589844 C 156.773438 89.382812 155.191406 89.253906 153.597656 89.199219 C 152.007812 89.148438 150.417969 89.171875 148.832031 89.277344 C 147.242188 89.382812 145.664062 89.5625 144.09375 89.820312 C 142.523438 90.082031 140.972656 90.414062 139.433594 90.828125 C 137.898438 91.238281 136.382812 91.726562 134.894531 92.285156 C 133.40625 92.847656 131.945312 93.480469 130.519531 94.183594 C 129.09375 94.886719 127.703125 95.660156 126.351562 96.5 C 125 97.339844 123.695312 98.242188 122.429688 99.210938 C 121.167969 100.179688 119.957031 101.210938 118.796875 102.296875 C 117.632812 103.386719 116.527344 104.527344 115.480469 105.726562 C 114.429688 106.921875 113.441406 108.167969 112.515625 109.460938 C 111.589844 110.753906 110.730469 112.089844 109.933594 113.46875 L 48.828125 219.351562 C 48.03125 220.726562 47.304688 222.140625 46.648438 223.589844 C 45.992188 225.039062 45.410156 226.519531 44.898438 228.023438 C 44.386719 229.53125 43.949219 231.058594 43.589844 232.609375 C 43.226562 234.160156 42.941406 235.722656 42.734375 237.300781 C 42.527344 238.878906 42.398438 240.460938 42.34375 242.050781 C 42.292969 243.640625 42.320312 245.230469 42.421875 246.820312 C 42.527344 248.40625 42.707031 249.984375 42.96875 251.554688 C 43.226562 253.125 43.5625 254.679688 43.972656 256.214844 C 44.386719 257.753906 44.871094 259.265625 45.433594 260.753906 C 45.992188 262.242188 46.625 263.703125 47.328125 265.128906 C 48.03125 266.554688 48.804688 267.945312 49.644531 269.296875 C 50.484375 270.648438 51.386719 271.953125 52.355469 273.21875 C 53.324219 274.480469 54.351562 275.691406 55.441406 276.851562 C 56.527344 278.015625 57.667969 279.121094 58.863281 280.167969 C 60.0625 281.21875 61.304688 282.207031 62.597656 283.132812 C 63.890625 284.0625 65.226562 284.921875 66.605469 285.71875 C 67.984375 286.515625 69.394531 287.238281 70.847656 287.894531 C 72.296875 288.554688 73.773438 289.136719 75.28125 289.648438 C 76.785156 290.160156 78.316406 290.597656 79.863281 290.957031 C 81.414062 291.320312 82.976562 291.601562 84.554688 291.8125 C 86.132812 292.019531 87.714844 292.148438 89.304688 292.199219 C 90.894531 292.253906 92.484375 292.226562 94.074219 292.121094 C 95.660156 292.019531 97.238281 291.835938 98.808594 291.578125 C 100.378906 291.320312 101.933594 290.984375 103.46875 290.570312 C 105.007812 290.160156 106.519531 289.675781 108.007812 289.113281 C 109.496094 288.554688 110.957031 287.921875 112.382812 287.21875 C 113.808594 286.515625 115.199219 285.742188 116.550781 284.902344 C 117.902344 284.0625 119.210938 283.160156 120.472656 282.191406 C 121.734375 281.222656 122.945312 280.195312 124.109375 279.105469 C 125.269531 278.019531 126.375 276.878906 127.421875 275.679688 C 128.472656 274.484375 129.460938 273.242188 130.386719 271.949219 C 131.316406 270.652344 132.175781 269.320312 132.972656 267.941406 L 194.078125 162.035156 C 194.875 160.660156 195.601562 159.246094 196.261719 157.796875 C 196.917969 156.347656 197.503906 154.867188 198.015625 153.363281 C 198.53125 151.855469 198.96875 150.328125 199.328125 148.777344 C 199.691406 147.226562 199.976562 145.664062 200.1875 144.085938 C 200.394531 142.507812 200.523438 140.921875 200.578125 139.332031 C 200.628906 137.742188 200.605469 136.152344 200.5 134.566406 C 200.398438 132.976562 200.214844 131.398438 199.957031 129.828125 C 199.699219 128.257812 199.363281 126.703125 198.953125 125.164062 C 198.539062 123.628906 198.054688 122.113281 197.492188 120.625 C 196.933594 119.136719 196.300781 117.675781 195.59375 116.25 C 194.890625 114.824219 194.117188 113.433594 193.277344 112.082031 C 192.4375 110.730469 191.53125 109.421875 190.5625 108.160156 C 189.59375 106.898438 188.566406 105.6875 187.476562 104.527344 C 186.386719 103.363281 185.246094 102.261719 184.046875 101.210938 C 182.851562 100.164062 181.605469 99.175781 180.3125 98.25 C 179.015625 97.324219 177.679688 96.460938 176.300781 95.667969 Z M 176.300781 95.691406 " fill-opacity="1" fill-rule="evenodd"/></g><g clip-path="url(#82fca9e900)"><path fill="#ff5700" d="M 303.085938 95.691406 C 301.710938 94.894531 300.296875 94.167969 298.847656 93.511719 C 297.398438 92.851562 295.917969 92.269531 294.414062 91.757812 C 292.90625 91.246094 291.378906 90.808594 289.828125 90.445312 C 288.277344 90.085938 286.714844 89.800781 285.136719 89.589844 C 283.558594 89.382812 281.976562 89.253906 280.386719 89.199219 C 278.796875 89.148438 277.207031 89.171875 275.617188 89.277344 C 274.03125 89.382812 272.449219 89.5625 270.882812 89.820312 C 269.3125 90.082031 267.757812 90.414062 266.21875 90.828125 C 264.683594 91.238281 263.167969 91.726562 261.679688 92.285156 C 260.191406 92.847656 258.734375 93.480469 257.304688 94.183594 C 255.878906 94.886719 254.488281 95.660156 253.136719 96.5 C 251.785156 97.339844 250.480469 98.242188 249.21875 99.210938 C 247.953125 100.179688 246.742188 101.210938 245.582031 102.296875 C 244.421875 103.386719 243.316406 104.527344 242.265625 105.726562 C 241.21875 106.921875 240.230469 108.167969 239.300781 109.460938 C 238.375 110.753906 237.515625 112.089844 236.71875 113.46875 L 175.613281 219.351562 C 174.816406 220.726562 174.089844 222.140625 173.433594 223.589844 C 172.777344 225.039062 172.191406 226.515625 171.679688 228.023438 C 171.167969 229.53125 170.730469 231.058594 170.367188 232.609375 C 170.007812 234.160156 169.722656 235.722656 169.515625 237.300781 C 169.304688 238.878906 169.175781 240.460938 169.125 242.050781 C 169.070312 243.640625 169.097656 245.230469 169.199219 246.820312 C 169.304688 248.40625 169.484375 249.988281 169.746094 251.558594 C 170.003906 253.125 170.339844 254.679688 170.75 256.21875 C 171.164062 257.753906 171.648438 259.269531 172.207031 260.757812 C 172.769531 262.246094 173.402344 263.703125 174.105469 265.132812 C 174.808594 266.558594 175.582031 267.949219 176.421875 269.300781 C 177.261719 270.652344 178.167969 271.957031 179.136719 273.222656 C 180.105469 274.484375 181.132812 275.695312 182.222656 276.855469 C 183.308594 278.019531 184.449219 279.121094 185.648438 280.171875 C 186.84375 281.222656 188.089844 282.207031 189.382812 283.136719 C 190.675781 284.0625 192.011719 284.921875 193.390625 285.71875 C 194.769531 286.515625 196.183594 287.242188 197.632812 287.898438 C 199.082031 288.554688 200.558594 289.140625 202.066406 289.652344 C 203.570312 290.164062 205.101562 290.601562 206.648438 290.964844 C 208.199219 291.324219 209.761719 291.609375 211.339844 291.816406 C 212.917969 292.027344 214.503906 292.15625 216.09375 292.210938 C 217.683594 292.261719 219.273438 292.234375 220.859375 292.132812 C 222.449219 292.027344 224.027344 291.847656 225.597656 291.585938 C 227.167969 291.328125 228.722656 290.992188 230.257812 290.582031 C 231.796875 290.167969 233.308594 289.683594 234.796875 289.125 C 236.289062 288.5625 237.746094 287.929688 239.171875 287.226562 C 240.601562 286.523438 241.988281 285.75 243.339844 284.910156 C 244.691406 284.070312 246 283.164062 247.261719 282.195312 C 248.523438 281.226562 249.734375 280.199219 250.898438 279.113281 C 252.058594 278.023438 253.164062 276.882812 254.210938 275.683594 C 255.261719 274.488281 256.25 273.242188 257.175781 271.949219 C 258.101562 270.65625 258.964844 269.320312 259.757812 267.941406 L 320.886719 162.058594 C 321.683594 160.683594 322.410156 159.269531 323.070312 157.820312 C 323.726562 156.371094 324.3125 154.890625 324.824219 153.386719 C 325.335938 151.878906 325.773438 150.351562 326.132812 148.800781 C 326.496094 147.25 326.78125 145.6875 326.988281 144.109375 C 327.195312 142.53125 327.328125 140.949219 327.378906 139.355469 C 327.429688 137.765625 327.40625 136.175781 327.300781 134.589844 C 327.199219 133 327.015625 131.421875 326.757812 129.851562 C 326.5 128.28125 326.164062 126.730469 325.75 125.191406 C 325.339844 123.65625 324.855469 122.140625 324.292969 120.652344 C 323.734375 119.164062 323.101562 117.703125 322.398438 116.277344 C 321.691406 114.851562 320.921875 113.460938 320.082031 112.109375 C 319.238281 110.757812 318.335938 109.449219 317.367188 108.1875 C 316.398438 106.925781 315.371094 105.714844 314.28125 104.554688 C 313.195312 103.390625 312.050781 102.285156 310.855469 101.238281 C 309.65625 100.1875 308.414062 99.199219 307.121094 98.273438 C 305.824219 97.347656 304.488281 96.488281 303.109375 95.691406 Z M 303.085938 95.691406 " fill-opacity="1" fill-rule="evenodd"/></g><g clip-path="url(#025a6bd97e)"><path fill="#ff5700" d="M 288.792969 249.191406 C 288.792969 247.816406 288.863281 246.445312 288.996094 245.078125 C 289.132812 243.710938 289.332031 242.351562 289.601562 241.003906 C 289.871094 239.652344 290.203125 238.320312 290.601562 237.007812 C 291 235.691406 291.464844 234.398438 291.988281 233.128906 C 292.515625 231.859375 293.101562 230.617188 293.75 229.402344 C 294.398438 228.191406 295.105469 227.011719 295.871094 225.871094 C 296.632812 224.726562 297.449219 223.625 298.324219 222.5625 C 299.195312 221.5 300.117188 220.480469 301.089844 219.507812 C 302.0625 218.535156 303.078125 217.613281 304.140625 216.742188 C 305.203125 215.871094 306.308594 215.050781 307.449219 214.289062 C 308.59375 213.523438 309.773438 212.820312 310.984375 212.171875 C 312.195312 211.523438 313.4375 210.933594 314.707031 210.410156 C 315.976562 209.882812 317.269531 209.421875 318.585938 209.019531 C 319.902344 208.621094 321.234375 208.289062 322.582031 208.019531 C 323.929688 207.753906 325.289062 207.550781 326.65625 207.414062 C 328.027344 207.28125 329.398438 207.214844 330.773438 207.214844 C 332.148438 207.214844 333.519531 207.28125 334.886719 207.414062 C 336.253906 207.550781 337.613281 207.753906 338.960938 208.019531 C 340.308594 208.289062 341.640625 208.621094 342.957031 209.019531 C 344.273438 209.421875 345.566406 209.882812 346.835938 210.410156 C 348.105469 210.933594 349.347656 211.523438 350.558594 212.171875 C 351.773438 212.820312 352.949219 213.523438 354.09375 214.289062 C 355.238281 215.050781 356.339844 215.871094 357.402344 216.742188 C 358.464844 217.613281 359.484375 218.535156 360.453125 219.507812 C 361.425781 220.480469 362.347656 221.5 363.222656 222.5625 C 364.09375 223.625 364.910156 224.726562 365.675781 225.871094 C 366.4375 227.011719 367.144531 228.191406 367.792969 229.402344 C 368.441406 230.617188 369.027344 231.859375 369.554688 233.128906 C 370.082031 234.398438 370.542969 235.691406 370.941406 237.007812 C 371.339844 238.320312 371.675781 239.652344 371.945312 241.003906 C 372.210938 242.351562 372.414062 243.710938 372.546875 245.078125 C 372.683594 246.445312 372.75 247.816406 372.75 249.191406 C 372.75 250.566406 372.683594 251.9375 372.546875 253.304688 C 372.414062 254.675781 372.210938 256.03125 371.945312 257.382812 C 371.675781 258.730469 371.339844 260.0625 370.941406 261.378906 C 370.542969 262.691406 370.082031 263.984375 369.554688 265.257812 C 369.027344 266.527344 368.441406 267.769531 367.792969 268.980469 C 367.144531 270.191406 366.4375 271.371094 365.675781 272.515625 C 364.910156 273.65625 364.09375 274.761719 363.222656 275.824219 C 362.347656 276.886719 361.425781 277.902344 360.453125 278.875 C 359.484375 279.847656 358.464844 280.769531 357.402344 281.640625 C 356.339844 282.511719 355.238281 283.332031 354.09375 284.09375 C 352.949219 284.859375 351.773438 285.566406 350.558594 286.214844 C 349.347656 286.863281 348.105469 287.449219 346.835938 287.976562 C 345.566406 288.5 344.273438 288.964844 342.957031 289.363281 C 341.640625 289.761719 340.308594 290.09375 338.960938 290.363281 C 337.613281 290.632812 336.253906 290.832031 334.886719 290.96875 C 333.519531 291.101562 332.148438 291.171875 330.773438 291.171875 C 329.398438 291.171875 328.027344 291.101562 326.65625 290.96875 C 325.289062 290.832031 323.929688 290.632812 322.582031 290.363281 C 321.234375 290.09375 319.902344 289.761719 318.585938 289.363281 C 317.269531 288.964844 315.976562 288.5 314.707031 287.976562 C 313.4375 287.449219 312.195312 286.863281 310.984375 286.214844 C 309.773438 285.566406 308.59375 284.859375 307.449219 284.09375 C 306.308594 283.332031 305.203125 282.511719 304.140625 281.640625 C 303.078125 280.769531 302.0625 279.847656 301.089844 278.875 C 300.117188 277.902344 299.195312 276.886719 298.324219 275.824219 C 297.449219 274.761719 296.632812 273.65625 295.871094 272.515625 C 295.105469 271.371094 294.398438 270.191406 293.75 268.980469 C 293.101562 267.769531 292.515625 266.527344 291.988281 265.257812 C 291.464844 263.984375 291 262.691406 290.601562 261.378906 C 290.203125 260.0625 289.871094 258.730469 289.601562 257.382812 C 289.332031 256.03125 289.132812 254.675781 288.996094 253.304688 C 288.863281 251.9375 288.792969 250.566406 288.792969 249.191406 Z M 288.792969 249.191406 " fill-opacity="1" fill-rule="evenodd"/></g></svg>