<svg width="468" height="90" viewBox="0 0 468 90" fill="none" xmlns="http://www.w3.org/2000/svg">
<path d="M198.068 51.561C197.928 50.1027 197.303 48.9725 196.193 48.1652C195.094 47.3631 193.615 46.9569 191.756 46.9569C189.849 46.9569 188.386 47.3527 187.36 48.1444C186.344 48.9256 185.839 49.9048 185.839 51.0819C185.808 52.4152 186.37 53.4256 187.527 54.1027C188.693 54.7694 190.073 55.2902 191.672 55.6652L194.985 56.4569C197.12 56.9465 199.027 57.6444 200.693 58.561C202.36 59.4673 203.662 60.6392 204.61 62.0819C205.568 63.5142 206.047 65.259 206.047 67.311C206.032 70.686 204.766 73.3735 202.256 75.3735C199.74 77.3735 196.235 78.3735 191.735 78.3735C187.245 78.3735 183.672 77.3527 181.006 75.311C178.339 73.2694 176.954 70.259 176.86 66.2694H184.402C184.537 68.1183 185.266 69.509 186.589 70.436C187.922 71.3683 189.599 71.8319 191.631 71.8319C193.615 71.8319 195.198 71.4152 196.381 70.5819C197.558 69.7381 198.157 68.6392 198.172 67.2902C198.157 66.0402 197.61 65.0819 196.527 64.4152C195.454 63.7381 193.912 63.16 191.902 62.686L187.881 61.6652C184.766 60.9308 182.308 59.7485 180.506 58.1235C178.714 56.4985 177.823 54.3267 177.839 51.6027C177.823 49.384 178.422 47.4308 179.631 45.7485C180.839 44.0715 182.495 42.7642 184.61 41.8319C186.719 40.9048 189.12 40.436 191.818 40.436C194.553 40.436 196.943 40.91 198.985 41.8527C201.037 42.785 202.636 44.0923 203.777 45.7694C204.912 47.436 205.506 49.3683 205.547 51.561H198.068Z" fill="black"/>
<path d="M218.812 61.8527V77.8527H211.124V40.936H218.582V55.061H218.916C219.551 53.4256 220.562 52.1392 221.937 51.2069C223.322 50.2798 225.072 49.811 227.187 49.811C230.062 49.811 232.374 50.7381 234.124 52.5819C235.884 54.4308 236.759 56.9777 236.749 60.2277V77.8527H229.082V61.6027C229.093 59.8944 228.666 58.5715 227.791 57.6235C226.916 56.6652 225.697 56.186 224.145 56.186C222.572 56.186 221.291 56.686 220.291 57.686C219.301 58.6756 218.812 60.061 218.812 61.8527Z" fill="black"/>
<path d="M250.693 78.3735C248.052 78.3735 245.86 77.686 244.11 76.311C242.37 74.9256 241.505 72.8631 241.505 70.1235C241.505 68.0558 241.99 66.436 242.964 65.2694C243.932 64.0923 245.203 63.2277 246.776 62.686C248.36 62.134 250.068 61.7694 251.901 61.6027C254.302 61.3527 256.016 61.0975 257.047 60.8319C258.089 60.5715 258.61 59.9933 258.61 59.1027V58.9985C258.61 57.8631 258.245 56.9777 257.526 56.3527C256.818 55.7277 255.802 55.4152 254.485 55.4152C253.11 55.4152 252.011 55.7225 251.193 56.3319C250.37 56.9308 249.828 57.686 249.568 58.6027L242.464 58.0194C243.005 55.509 244.318 53.5142 246.401 52.0402C248.495 50.5558 251.203 49.811 254.526 49.811C256.578 49.811 258.505 50.1392 260.297 50.7902C262.089 51.4308 263.531 52.4465 264.63 53.8319C265.724 55.2069 266.276 56.9933 266.276 59.186V77.8527H259.005V74.0194H258.776C258.11 75.3006 257.099 76.3475 255.755 77.1652C254.422 77.9673 252.735 78.3735 250.693 78.3735ZM252.88 73.0819C254.573 73.0819 255.953 72.5975 257.026 71.6235C258.11 70.6392 258.651 69.4152 258.651 67.9569V65.0194C258.36 65.2277 257.891 65.41 257.255 65.561C256.63 65.7173 255.953 65.8527 255.235 65.9777C254.526 66.0923 253.886 66.186 253.318 66.2694C251.969 66.4673 250.886 66.8475 250.068 67.4152C249.245 67.9725 248.839 68.7902 248.839 69.8735C248.839 70.9308 249.219 71.7277 249.985 72.2694C250.745 72.811 251.714 73.0819 252.88 73.0819Z" fill="black"/>
<path d="M272.236 77.8526V50.1651H279.674V54.9985H279.965C280.465 53.2797 281.304 51.9776 282.486 51.1026C283.679 50.2172 285.054 49.7693 286.611 49.7693C287.361 49.7693 288.054 49.863 288.695 50.0401C289.33 50.2224 289.903 50.4724 290.403 50.7901L288.09 57.1235C287.726 56.9464 287.33 56.7901 286.903 56.6651C286.486 56.5401 286.012 56.4776 285.486 56.4776C283.929 56.4776 282.611 57.0089 281.528 58.061C280.455 59.1182 279.924 60.4932 279.924 62.186V77.8526H272.236Z" fill="black"/>
<path d="M306.607 78.3944C303.758 78.3944 301.305 77.8215 299.253 76.6652C297.212 75.4985 295.633 73.8527 294.524 71.7277C293.41 69.5923 292.857 67.061 292.857 64.1444C292.857 61.3006 293.41 58.8006 294.524 56.6444C295.633 54.4933 297.191 52.8215 299.191 51.6235C301.201 50.4152 303.571 49.811 306.295 49.811C308.722 49.811 310.92 50.3319 312.878 51.3735C314.847 52.4048 316.41 53.9569 317.566 56.0402C318.717 58.1235 319.295 60.7381 319.295 63.8735V65.9777H300.462V65.9985C300.462 68.0715 301.024 69.7017 302.149 70.8944C303.274 72.0767 304.8 72.6652 306.732 72.6652C308.008 72.6652 309.113 72.3944 310.045 71.8527C310.988 71.311 311.654 70.5142 312.045 69.4569L319.149 69.9152C318.607 72.4881 317.232 74.5402 315.024 76.0819C312.826 77.6235 310.024 78.3944 306.607 78.3944ZM300.462 61.2277H312.087C312.071 59.5767 311.535 58.2173 310.482 57.1444C309.441 56.0767 308.087 55.5402 306.42 55.5402C304.712 55.5402 303.305 56.0975 302.212 57.2069C301.128 58.3058 300.545 59.6444 300.462 61.2277Z" fill="black"/>
<path d="M344.527 77.8527L333.965 40.936H342.486L348.59 66.5819H348.902L355.652 40.936H362.944L369.673 66.6444H369.986L376.09 40.936H384.632L374.069 77.8527H366.465L359.423 53.7277H359.132L352.132 77.8527H344.527Z" fill="black"/>
<path d="M401.124 78.3944C398.332 78.3944 395.915 77.8006 393.874 76.6027C391.842 75.41 390.275 73.7433 389.165 71.6027C388.051 69.4517 387.499 66.9569 387.499 64.1235C387.499 61.2642 388.051 58.7642 389.165 56.6235C390.275 54.4725 391.842 52.8006 393.874 51.6027C395.915 50.41 398.332 49.811 401.124 49.811C403.926 49.811 406.342 50.41 408.374 51.6027C410.415 52.8006 411.983 54.4725 413.082 56.6235C414.191 58.7642 414.749 61.2642 414.749 64.1235C414.749 66.9569 414.191 69.4517 413.082 71.6027C411.983 73.7433 410.415 75.41 408.374 76.6027C406.342 77.8006 403.926 78.3944 401.124 78.3944ZM401.165 72.436C403.066 72.436 404.504 71.6444 405.478 70.061C406.462 68.4777 406.957 66.4777 406.957 64.061C406.957 61.6444 406.462 59.6444 405.478 58.061C404.504 56.4673 403.066 55.6652 401.165 55.6652C399.233 55.6652 397.775 56.4673 396.79 58.061C395.801 59.6444 395.311 61.6444 395.311 64.061C395.311 66.4777 395.801 68.4777 396.79 70.061C397.775 71.6444 399.233 72.436 401.165 72.436Z" fill="black"/>
<path d="M419.756 77.8526V50.1651H427.193V54.9985H427.485C427.985 53.2797 428.824 51.9776 430.006 51.1026C431.199 50.2172 432.574 49.7693 434.131 49.7693C434.881 49.7693 435.574 49.863 436.214 50.0401C436.85 50.2224 437.423 50.4724 437.923 50.7901L435.61 57.1235C435.245 56.9464 434.85 56.7901 434.423 56.6651C434.006 56.5401 433.532 56.4776 433.006 56.4776C431.449 56.4776 430.131 57.0089 429.048 58.061C427.975 59.1182 427.443 60.4932 427.443 62.186V77.8526H419.756Z" fill="black"/>
<path d="M451.71 78.311C449.596 78.311 447.694 77.7694 446.002 76.686C444.304 75.5923 442.96 73.9881 441.96 71.8735C440.971 69.7485 440.481 67.1392 440.481 64.0402C440.481 60.8735 440.991 58.2381 442.023 56.1235C443.049 54.0142 444.408 52.436 446.106 51.3944C447.799 50.3423 449.658 49.811 451.689 49.811C453.231 49.811 454.523 50.0767 455.564 50.6027C456.606 51.1183 457.444 51.7642 458.085 52.5402C458.736 53.3058 459.231 54.061 459.564 54.811H459.793V40.936H467.46V77.8527H459.877V73.4152H459.564C459.215 74.1965 458.71 74.9569 458.043 75.7069C457.387 76.4569 456.543 77.0819 455.502 77.5819C454.46 78.0662 453.194 78.311 451.71 78.311ZM454.127 72.186C455.986 72.186 457.424 71.4465 458.439 69.9569C459.45 68.4569 459.96 66.4777 459.96 64.0194C459.96 61.535 459.45 59.561 458.439 58.1027C457.439 56.6444 456.002 55.9152 454.127 55.9152C452.236 55.9152 450.793 56.6652 449.793 58.1652C448.804 59.6652 448.314 61.6183 448.314 64.0194C448.314 66.436 448.814 68.4048 449.814 69.9152C450.814 71.4308 452.252 72.186 454.127 72.186Z" fill="black"/>
<mask id="mask0_206_276" style="mask-type:luminance" maskUnits="userSpaceOnUse" x="0" y="18" width="60" height="72">
<path d="M0 18.6667H59.7969V89.8751H0V18.6667Z" fill="white"/>
</mask>
<g mask="url(#mask0_206_276)">
<path fill-rule="evenodd" clip-rule="evenodd" d="M10.6873 21.8489C11.2915 21.5 11.9165 21.177 12.5519 20.8906C13.1925 20.5989 13.8436 20.3385 14.505 20.1145C15.1665 19.8906 15.8384 19.6979 16.5206 19.5364C17.2029 19.375 17.8904 19.25 18.5831 19.1614C19.2811 19.0677 19.9738 19.0104 20.6769 18.9895C21.3748 18.9635 22.0727 18.9739 22.7759 19.0208C23.4738 19.0677 24.1665 19.1458 24.8592 19.2604C25.5467 19.375 26.2342 19.5208 26.9061 19.7031C27.5831 19.8854 28.2498 20.0989 28.9061 20.3489C29.5623 20.5937 30.2029 20.875 30.8279 21.1875C31.4581 21.4947 32.0675 21.8385 32.6665 22.2083C33.2602 22.5781 33.8331 22.9791 34.3904 23.4062C34.9425 23.8333 35.479 24.2864 35.9894 24.7656C36.4998 25.2447 36.9842 25.75 37.4477 26.276C37.9113 26.8072 38.3436 27.3541 38.7498 27.927C39.1613 28.4947 39.5363 29.0833 39.8852 29.6927L55.8957 57.5208C56.2446 58.125 56.5675 58.75 56.854 59.3906C57.1457 60.026 57.4009 60.6822 57.6248 61.3437C57.854 62.0104 58.0415 62.6822 58.2029 63.3697C58.3644 64.052 58.4894 64.7395 58.5779 65.4375C58.6717 66.1354 58.729 66.8333 58.7498 67.5312C58.7759 68.2343 58.7654 68.9375 58.7186 69.6354C58.6717 70.3385 58.5936 71.0364 58.479 71.7291C58.3644 72.4218 58.2186 73.1041 58.0363 73.7812C57.854 74.4635 57.6404 75.1302 57.3957 75.7864C57.1457 76.4427 56.8696 77.0885 56.5571 77.7135C56.2498 78.3437 55.9113 78.9583 55.5415 79.552C55.1717 80.151 54.7707 80.7291 54.3436 81.2864C53.9217 81.8385 53.4686 82.375 52.9894 82.8854C52.5102 83.401 52.005 83.8854 51.479 84.3489C50.9529 84.8125 50.4061 85.25 49.8384 85.6562C49.2707 86.0677 48.6821 86.4479 48.0727 86.7968C47.4686 87.151 46.8436 87.4687 46.2082 87.7604C45.5727 88.0468 44.9217 88.3072 44.255 88.5312C43.5936 88.7604 42.9217 88.9531 42.2394 89.1093C41.5571 89.2708 40.8696 89.3958 40.1769 89.4895C39.4842 89.5781 38.7863 89.6354 38.0884 89.6614C37.3852 89.6822 36.6873 89.6718 35.9894 89.625C35.2915 89.5833 34.5936 89.5 33.9061 89.3854C33.2134 89.2708 32.5311 89.125 31.854 88.9427C31.1769 88.7604 30.5102 88.5468 29.854 88.302C29.2029 88.052 28.5571 87.7708 27.9321 87.4635C27.3019 87.151 26.6925 86.8125 26.0988 86.4427C25.505 86.0677 24.9269 85.6718 24.3748 85.2447C23.8175 84.8177 23.2863 84.3645 22.7706 83.8802C22.2602 83.401 21.7759 82.901 21.3123 82.3697C20.854 81.8437 20.4165 81.2916 20.0102 80.7239C19.604 80.151 19.2238 79.5625 18.8748 78.9531L2.8644 51.1197C2.51544 50.5104 2.19773 49.8854 1.90606 49.25C1.61961 48.6093 1.35919 47.9583 1.13523 47.2916C0.911274 46.625 0.718565 45.9531 0.557106 45.2708C0.400857 44.5885 0.275857 43.8958 0.182106 43.1979C0.0883568 42.5052 0.0310645 41.8072 0.0102312 41.1041C-0.0106022 40.401 -0.000184541 39.7031 0.0466901 39C0.0883568 38.302 0.17169 37.6041 0.286274 36.9114C0.395649 36.2187 0.54669 35.5312 0.728982 34.8541C0.906065 34.177 1.11961 33.5104 1.36961 32.8541C1.6144 32.1927 1.89044 31.552 2.20294 30.9218C2.51023 30.2916 2.85398 29.677 3.22377 29.0833C3.59356 28.4843 3.9894 27.9114 4.41648 27.3541C4.84356 26.7968 5.29669 26.2604 5.77065 25.75C6.24982 25.2395 6.75502 24.75 7.28107 24.2864C7.80711 23.8229 8.35398 23.3906 8.92169 22.9791C9.49461 22.5729 10.0831 22.1927 10.6873 21.8385V21.8489Z" fill="#F59E0B"/>
</g>
<mask id="mask1_206_276" style="mask-type:luminance" maskUnits="userSpaceOnUse" x="18" y="0" width="72" height="90">
<path d="M18.4639 0H89.1305V89.875H18.4639V0Z" fill="white"/>
</mask>
<g mask="url(#mask1_206_276)">
<path fill-rule="evenodd" clip-rule="evenodd" d="M77.5679 2.96366C76.9585 2.6147 76.3387 2.29178 75.7033 2.00532C75.0627 1.71366 74.4117 1.45845 73.7502 1.22928C73.0887 1.00532 72.4169 0.812616 71.7346 0.651158C71.0523 0.4897 70.3648 0.3647 69.6669 0.276158C68.9742 0.182408 68.2762 0.125116 67.5783 0.104283C66.8804 0.0782414 66.1773 0.088658 65.4794 0.135533C64.7814 0.182409 64.0887 0.260532 63.396 0.375116C62.7033 0.4897 62.021 0.640742 61.3439 0.817824C60.6721 1.00012 60.0054 1.21887 59.3492 1.46366C58.6929 1.70845 58.0523 1.9897 57.4221 2.3022C56.7971 2.60949 56.1825 2.95324 55.5887 3.32303C54.995 3.69282 54.4221 4.09387 53.8648 4.52095C53.3075 4.94803 52.7762 5.40116 52.2658 5.88032C51.7554 6.35949 51.2658 6.8647 50.8075 7.39074C50.3439 7.92199 49.9117 8.46887 49.5054 9.04178C49.0939 9.60949 48.7189 10.198 48.3648 10.8074L21.4794 57.521C21.1304 58.1251 20.8127 58.7501 20.521 59.3907C20.2346 60.0314 19.9794 60.6824 19.7502 61.3439C19.5262 62.0105 19.3335 62.6824 19.1773 63.3699C19.0158 64.0522 18.8908 64.7397 18.8023 65.4376C18.7085 66.1355 18.6512 66.8335 18.6304 67.5314C18.6044 68.2345 18.62 68.9376 18.6617 69.6355C18.7085 70.3387 18.7919 71.0314 18.9012 71.7241C19.0158 72.4168 19.1669 73.1043 19.3439 73.7814C19.5262 74.4585 19.7398 75.1251 19.9898 75.7866C20.2346 76.4428 20.5106 77.0835 20.8231 77.7137C21.1304 78.3439 21.4689 78.9585 21.8387 79.5522C22.2085 80.1512 22.6096 80.7241 23.0314 81.2814C23.4585 81.8387 23.9117 82.3751 24.3908 82.8855C24.87 83.4012 25.37 83.8855 25.896 84.3491C26.4221 84.8126 26.9689 85.2501 27.5419 85.6564C28.1096 86.0678 28.6981 86.448 29.3023 86.797C29.9117 87.1459 30.5314 87.4689 31.1669 87.7605C31.8075 88.047 32.4585 88.3074 33.12 88.5314C33.7814 88.7553 34.4533 88.948 35.1356 89.1095C35.8179 89.2657 36.5054 89.3959 37.1981 89.4845C37.896 89.5782 38.5939 89.6355 39.2919 89.6564C39.9898 89.6824 40.6877 89.6668 41.3908 89.6251C42.0887 89.5782 42.7814 89.4949 43.4742 89.3803C44.1617 89.2657 44.8439 89.1199 45.521 88.9376C46.1981 88.7553 46.8648 88.5418 47.521 88.297C48.1773 88.047 48.8179 87.7709 49.4429 87.4584C50.0731 87.1512 50.6825 86.8074 51.2762 86.4376C51.87 86.0678 52.4481 85.6668 53.0054 85.2397C53.5575 84.8126 54.0939 84.3595 54.6044 83.8803C55.1148 83.4012 55.5992 82.896 56.0627 82.3699C56.521 81.8439 56.9585 81.2918 57.3648 80.7241C57.7762 80.1512 58.1512 79.5626 58.5054 78.9532L85.3856 32.2345C85.7398 31.6251 86.0575 31.0053 86.3492 30.3647C86.6356 29.7241 86.896 29.073 87.12 28.4064C87.3439 27.7449 87.5367 27.0678 87.6981 26.3855C87.8596 25.7032 87.9846 25.0105 88.0731 24.3178C88.1669 23.6199 88.2242 22.922 88.245 22.2189C88.271 21.5157 88.2606 20.8178 88.2137 20.1147C88.1669 19.4168 88.0887 18.7189 87.9742 18.0262C87.8596 17.3334 87.7137 16.646 87.5315 15.9689C87.3492 15.2918 87.1356 14.6251 86.8908 13.9637C86.646 13.3074 86.3648 12.6668 86.0575 12.0366C85.745 11.4064 85.4064 10.7918 85.0367 10.198C84.6669 9.59907 84.2658 9.02616 83.844 8.46887C83.4169 7.91158 82.9637 7.37512 82.4846 6.8647C82.0054 6.34907 81.5002 5.8647 80.9742 5.40116C80.4481 4.93762 79.9012 4.50532 79.3283 4.09387C78.7606 3.68762 78.1721 3.30741 77.5679 2.95324V2.96366Z" fill="#F59E0B"/>
</g>
<mask id="mask2_206_276" style="mask-type:luminance" maskUnits="userSpaceOnUse" x="73" y="0" width="73" height="90">
<path d="M73.1299 0H145.13V89.875H73.1299V0Z" fill="white"/>
</mask>
<g mask="url(#mask2_206_276)">
<path fill-rule="evenodd" clip-rule="evenodd" d="M133.348 2.96366C132.744 2.6147 132.119 2.29178 131.484 2.00532C130.843 1.71366 130.192 1.45845 129.531 1.22928C128.869 1.00532 128.197 0.812616 127.515 0.651158C126.833 0.4897 126.145 0.3647 125.453 0.276158C124.755 0.182408 124.062 0.125116 123.359 0.104283C122.661 0.0782414 121.963 0.088658 121.265 0.135533C120.562 0.182409 119.869 0.260532 119.177 0.375116C118.489 0.4897 117.802 0.640742 117.13 0.817824C116.453 1.00012 115.786 1.21887 115.13 1.46366C114.473 1.70845 113.833 1.9897 113.208 2.3022C112.578 2.60949 111.968 2.95324 111.369 3.32303C110.776 3.69282 110.203 4.09387 109.645 4.52095C109.093 4.94803 108.557 5.40116 108.046 5.88032C107.536 6.35949 107.052 6.8647 106.588 7.39074C106.124 7.92199 105.692 8.46887 105.286 9.04178C104.874 9.60949 104.499 10.198 104.151 10.8074L77.2651 57.521C76.9109 58.1251 76.5932 58.7501 76.3016 59.3907C76.0151 60.0262 75.7599 60.6824 75.5307 61.3439C75.3068 62.0105 75.1141 62.6824 74.9578 63.3699C74.7964 64.0522 74.6714 64.7397 74.5776 65.4376C74.4891 66.1355 74.4318 66.8335 74.4057 67.5314C74.3849 68.2345 74.3953 68.9376 74.4422 69.6355C74.4891 70.3387 74.5672 71.0366 74.6818 71.7293C74.7964 72.422 74.9422 73.1043 75.1245 73.7814C75.3068 74.4637 75.5203 75.1303 75.7651 75.7866C76.0099 76.4428 76.2912 77.0887 76.5984 77.7137C76.9109 78.3439 77.2495 78.9585 77.6193 79.5522C77.9891 80.1512 78.3849 80.7293 78.812 81.2866C79.2391 81.8387 79.6922 82.3751 80.1714 82.8855C80.6505 83.4012 81.1505 83.8855 81.6766 84.3491C82.2026 84.8126 82.7547 85.2501 83.3224 85.6564C83.8901 86.0678 84.4787 86.448 85.0828 86.797C85.6922 87.1512 86.312 87.4689 86.9526 87.7605C87.588 88.047 88.2391 88.3074 88.9005 88.5314C89.562 88.7605 90.2391 88.9532 90.9162 89.1095C91.5984 89.2709 92.2859 89.3959 92.9839 89.4897C93.6766 89.5782 94.3745 89.6355 95.0724 89.6616C95.7703 89.6824 96.4734 89.672 97.1714 89.6251C97.8693 89.5834 98.562 89.5001 99.2547 89.3855C99.9474 89.2709 100.63 89.1251 101.307 88.9428C101.984 88.7605 102.645 88.547 103.302 88.3022C103.958 88.0522 104.598 87.7709 105.229 87.4637C105.854 87.1512 106.468 86.8126 107.062 86.4428C107.656 86.0678 108.229 85.672 108.786 85.2449C109.343 84.8178 109.874 84.3647 110.385 83.8803C110.895 83.4012 111.385 82.9012 111.843 82.3699C112.307 81.8439 112.739 81.2918 113.151 80.7241C113.557 80.1512 113.937 79.5626 114.286 78.9532L141.182 32.2449C141.531 31.6355 141.848 31.0157 142.14 30.3751C142.427 29.7345 142.687 29.0835 142.911 28.4168C143.135 27.7553 143.328 27.0782 143.489 26.396C143.645 25.7137 143.77 25.021 143.864 24.3282C143.958 23.6303 144.015 22.9324 144.036 22.2293C144.057 21.5262 144.046 20.8282 143.999 20.1251C143.958 19.4272 143.874 18.7293 143.765 18.0366C143.651 17.3439 143.499 16.6564 143.322 15.9793C143.14 15.3022 142.927 14.6355 142.677 13.9793C142.432 13.3178 142.156 12.6772 141.843 12.047C141.536 11.4168 141.192 10.8074 140.822 10.2084C140.453 9.6147 140.057 9.03657 139.63 8.47928C139.203 7.92199 138.749 7.38553 138.276 6.87512C137.796 6.3647 137.291 5.87512 136.765 5.41157C136.239 4.94803 135.692 4.51574 135.124 4.10428C134.552 3.69803 133.963 3.31782 133.359 2.96366H133.348Z" fill="#FF5700"/>
</g>
<mask id="mask3_206_276" style="mask-type:luminance" maskUnits="userSpaceOnUse" x="126" y="52" width="39" height="38">
<path d="M126.464 52H164V89.3333H126.464V52Z" fill="white"/>
</mask>
<g mask="url(#mask3_206_276)">
<path fill-rule="evenodd" clip-rule="evenodd" d="M127.063 70.6824C127.063 69.4688 127.178 68.2657 127.417 67.073C127.652 65.8803 128 64.7188 128.469 63.599C128.933 62.474 129.5 61.4063 130.172 60.3959C130.849 59.3855 131.615 58.448 132.469 57.5886C133.329 56.7292 134.261 55.9636 135.271 55.2865C136.277 54.6095 137.344 54.0417 138.464 53.573C139.584 53.1095 140.735 52.7553 141.928 52.5209C143.115 52.2813 144.318 52.1667 145.532 52.1667C146.74 52.1667 147.943 52.2813 149.131 52.5209C150.323 52.7553 151.48 53.1095 152.599 53.573C153.719 54.0417 154.782 54.6095 155.792 55.2865C156.797 55.9636 157.73 56.7292 158.589 57.5886C159.448 58.448 160.214 59.3855 160.886 60.3959C161.558 61.4063 162.131 62.474 162.594 63.599C163.058 64.7188 163.407 65.8803 163.646 67.073C163.881 68.2657 164 69.4688 164 70.6824C164 71.9011 163.881 73.1042 163.646 74.297C163.407 75.4897 163.058 76.6459 162.594 77.7709C162.131 78.8959 161.558 79.9636 160.886 80.974C160.214 81.9845 159.448 82.9167 158.589 83.7761C157.73 84.6407 156.797 85.4063 155.792 86.0834C154.782 86.7553 153.719 87.3282 152.599 87.7917C151.48 88.2605 150.323 88.6095 149.131 88.849C147.943 89.0834 146.74 89.2032 145.532 89.2032C144.318 89.2032 143.115 89.0834 141.928 88.849C140.735 88.6095 139.584 88.2605 138.464 87.7917C137.344 87.3282 136.277 86.7553 135.271 86.0834C134.261 85.4063 133.329 84.6407 132.469 83.7761C131.615 82.9167 130.849 81.9845 130.172 80.974C129.5 79.9636 128.933 78.8959 128.469 77.7709C128 76.6459 127.652 75.4897 127.417 74.297C127.178 73.1042 127.063 71.9011 127.063 70.6824Z" fill="#FF5700"/>
</g>
</svg>
